<svg xmlns="http://www.w3.org/2000/svg" version="1.1" xmlns:xlink="http://www.w3.org/1999/xlink" width="512" height="512"><svg version="1.1" xmlns="http://www.w3.org/2000/svg" width="512" height="512">
<path d="M0 0 C0 63.03 0 126.06 0 191 C10.90357703 183.73385943 10.90357703 183.73385943 20 174 C20.23590377 170.72285029 19.09026329 168.05828093 18 165 C10.66380287 136.59021699 14.35758093 108.43272651 29.16552734 82.99804688 C43.46736334 59.5470265 63.10414613 41.76885709 86 27 C85.33097656 27.06783691 84.66195312 27.13567383 83.97265625 27.20556641 C77.91881099 27.76930535 71.89082054 28.09975297 65.8125 28.2109375 C65.09690918 28.2252179 64.38131836 28.23949829 63.64404297 28.25421143 C60.68690992 28.31159084 57.72995333 28.36635961 54.77246094 28.40136719 C42.0524094 28.56379849 28.86112886 28.90193468 19 38 C17.25143514 40.24322466 15.73497468 42.5013148 14.2890625 44.94921875 C13.0382714 46.93911368 11.72256826 48.41342397 10 50 C9.01 49.34 8.02 48.68 7 48 C8.02643196 32.60352064 14.4436552 17.46175476 26 7 C35.27518469 0.55933695 44.80930734 -1.28904957 56 0 C61.84697099 1.14167718 67.48034829 3.0637857 73.125 4.9375 C75.3252719 5.64490288 77.52739655 6.34626136 79.72994995 7.04652405 C81.08406119 7.47945336 82.43650933 7.91763381 83.78689575 8.36204529 C92.1031903 11.08206312 99.88327355 12.46866797 108.171875 9.05859375 C111.81809837 6.94721227 114.12557389 3.74885223 116 0 C118.97 0 121.94 0 125 0 C125 27.72 125 55.44 125 84 C127.31 84.33 129.62 84.66 132 85 C132.83402344 85.18046875 133.66804688 85.3609375 134.52734375 85.546875 C137.56673383 86.10385644 140.47257177 86.20781668 143.5625 86.25 C144.67753906 86.27578125 145.79257812 86.3015625 146.94140625 86.328125 C152.43533236 86.13530441 157.72771108 84.44428367 163 83 C163.24889164 77.20197352 163.42941786 71.40711071 163.54931641 65.60498047 C163.59933143 63.63567905 163.66737241 61.66674386 163.75439453 59.69873047 C164.73762261 47.98343158 164.73762261 47.98343158 160.72949219 37.41699219 C158.27463 34.96213 155.89442669 32.90764582 153 31 C152.42475586 31.62318115 151.84951172 32.2463623 151.25683594 32.88842773 C147.140625 37.34765625 147.140625 37.34765625 145 39 C142.42755174 38.79457763 141.27180566 38.19682479 139.1875 36.6875 C138 35 138 35 138.21630859 33.12011719 C139.16866559 30.54370967 140.37800879 29.29396919 142.3515625 27.390625 C143.03863281 26.71773437 143.72570312 26.04484375 144.43359375 25.3515625 C145.15675781 24.65804687 145.87992187 23.96453125 146.625 23.25 C151.4557469 18.57049196 156.10208968 13.84837074 160.48632812 8.74511719 C162.22296189 6.74294652 164.04442446 4.85444135 165.9375 3 C166.52402344 2.4225 167.11054688 1.845 167.71484375 1.25 C168.13894531 0.8375 168.56304687 0.425 169 0 C172.1975493 1.41786946 174.41860282 3.13525701 176.93359375 5.5546875 C177.66513672 6.25207031 178.39667969 6.94945313 179.15039062 7.66796875 C180.28250977 8.76044922 180.28250977 8.76044922 181.4375 9.875 C187.98676854 16.20123241 187.98676854 16.20123241 195 22 C195.59014893 21.63124756 196.18029785 21.26249512 196.78833008 20.88256836 C199.45658779 19.2235385 202.1342874 17.58040629 204.8125 15.9375 C205.74126953 15.35677734 206.67003906 14.77605469 207.62695312 14.17773438 C208.51962891 13.63310547 209.41230469 13.08847656 210.33203125 12.52734375 C211.15421143 12.01937256 211.9763916 11.51140137 212.82348633 10.98803711 C215 10 215 10 218 11 C217.24873517 15.78378931 214.17154942 18.79963268 211.203125 22.46484375 C204.643904 32.0712037 203.2686608 42.30958234 203.38476562 53.65942383 C203.38125434 55.0769212 203.37558448 56.49441459 203.36795044 57.91189575 C203.35384355 61.71966116 203.37061912 65.5266922 203.39423561 69.33438706 C203.41451106 73.33845477 203.40845679 77.34249692 203.40612793 81.34660339 C203.40618129 88.0618383 203.42581916 94.77678985 203.45800781 101.49194336 C203.49496672 109.23961289 203.50367083 116.98691282 203.4967103 124.73465902 C203.49039381 132.21675368 203.50117594 139.6987226 203.52067566 147.18079185 C203.52881907 150.35324594 203.53156492 153.52563549 203.52998352 156.69809914 C203.52910105 160.43379389 203.54341747 164.1691404 203.56921005 167.90474319 C203.57971968 169.91885442 203.57571481 171.93302523 203.57119751 173.94715881 C203.65075031 182.44413249 204.93412762 188.49377406 209 196 C212.03852705 194.59023295 214.5939595 192.91129772 217.25 190.875 C217.95640625 190.33617187 218.6628125 189.79734375 219.390625 189.2421875 C219.92171875 188.83226562 220.4528125 188.42234375 221 188 C222.65 189.65 224.3 191.3 226 193 C224.62626924 196.11390334 223.07437421 198.13496979 220.59375 200.453125 C219.93246094 201.071875 219.27117187 201.690625 218.58984375 202.328125 C217.55537109 203.27945313 217.55537109 203.27945313 216.5 204.25 C215.46552734 205.22453125 215.46552734 205.22453125 214.41015625 206.21875 C209.25725446 211 209.25725446 211 207 211 C207 211.66 207 212.32 207 213 C204.49989204 215.51871918 201.71673271 217.71916097 199 220 C198.113125 220.825 197.22625 221.65 196.3125 222.5 C194 224 194 224 191.625 223.78125 C182.93252453 221.19420373 174.8711387 212.02635711 170.49609375 204.3671875 C167.52109385 198.1330086 165.59587006 191.70784409 164 185 C163.27039063 185.71542969 162.54078125 186.43085938 161.7890625 187.16796875 C141.1199372 207.05069526 114.88291245 225.57272775 85 225 C70.49308721 224.13775388 58.39217798 220.06763576 47 211 C46.01902344 210.22914063 45.03804687 209.45828125 44.02734375 208.6640625 C40.93340504 206.06328928 38.42630289 203.09599233 36 199.875 C35.57283691 199.31530518 35.14567383 198.75561035 34.70556641 198.17895508 C30.90311098 193.0862525 27.81028361 187.70053465 25 182 C21.69413749 185.21371303 18.7205677 188.50041756 15.875 192.125 C2.36055974 208.68965166 -12.50433342 220.29848655 -34 224 C-52.44707799 225.74930836 -71.52932816 222.43849686 -86.26171875 210.453125 C-104.26362711 194.90184038 -114.96377061 173.75600959 -117 150 C-118.92750031 115.97249452 -109.10079803 84.47382276 -86.5 58.8125 C-85.00864466 57.20029345 -83.5088232 55.59587069 -82 54 C-81.30390625 53.25105469 -80.6078125 52.50210938 -79.890625 51.73046875 C-70.80052496 42.25884991 -60.19557824 34.77568062 -49 28 C-49.81689049 28.21499901 -49.81689049 28.21499901 -50.65028381 28.43434143 C-56.23648966 29.80436257 -61.32515142 30.23578565 -67.05859375 30.08984375 C-68.76106489 30.06942522 -70.46353897 30.04925039 -72.16601562 30.02929688 C-74.80327578 29.98590234 -77.44032601 29.93744224 -80.07739258 29.88354492 C-98.62247549 29.41569604 -98.62247549 29.41569604 -114.44921875 38.3203125 C-119.79371087 43.90327277 -122.7570064 51.0822533 -126 58 C-127.65 57.67 -129.3 57.34 -131 57 C-131.89193318 40.92042679 -128.35209672 25.02080414 -118.1875 12.125 C-111.45071653 4.89312483 -103.25504491 0.88887654 -93.42675781 0.26538086 C-79.74757207 -0.14213317 -67.98739351 3.58147467 -55.21020508 7.9987793 C-43.98114538 11.87284147 -34.04014948 15.17479125 -22.75 9.9609375 C-18.83721935 7.9120152 -15.65978538 5.77431112 -12.5 2.6875 C-9 0 -9 0 0 0 Z M-16.48046875 21.48046875 C-23.18586337 28.18586337 -25.138415 34.06401214 -25.17358398 43.38867188 C-25.180271 44.1276622 -25.18695801 44.86665253 -25.19384766 45.6280365 C-25.2078826 47.23270533 -25.2197816 48.83739394 -25.22979546 50.4420929 C-25.24630792 53.0019525 -25.26956073 55.5616713 -25.29469299 58.12145996 C-25.36510535 65.4003991 -25.42486562 72.67940242 -25.47680664 79.95849609 C-25.5091011 84.41770069 -25.55051151 88.87675267 -25.59700203 93.33583069 C-25.61275209 95.01625235 -25.62519346 96.69670914 -25.63390923 98.37718201 C-25.6821313 107.55882726 -26.02619531 116.6411781 -26.91821289 125.78320312 C-26.99785247 126.60839699 -27.07749205 127.43359085 -27.15954494 128.28379059 C-28.60657438 141.93007544 -33.93686731 153.54675414 -44 163 C-44 163.66 -44 164.32 -44 165 C-44.51046875 165.22429687 -45.0209375 165.44859375 -45.546875 165.6796875 C-48.99598163 167.53605381 -52.08342773 169.82730426 -55.25 172.125 C-55.8996875 172.59292969 -56.549375 173.06085938 -57.21875 173.54296875 C-58.81435483 174.69274282 -60.40743025 175.84602566 -62 177 C-51.03209273 188.43133998 -35.2180914 194.4823997 -19.49609375 195.1484375 C-13.57089583 195.48572501 -13.57089583 195.48572501 -8 194 C-8 134.93 -8 75.86 -8 15 C-10.87065868 15 -14.47695015 19.66039105 -16.48046875 21.48046875 Z M113.4140625 17.58203125 C112.82367188 18.31808594 112.23328125 19.05414063 111.625 19.8125 C111.03976562 20.52019531 110.45453125 21.22789063 109.8515625 21.95703125 C103.29119698 32.73872902 103.42557807 43.21427335 103.4609375 55.4296875 C103.45100992 57.31097547 103.43906093 59.19225374 103.42520142 61.07351685 C103.39299402 66.00368409 103.38246265 70.93362955 103.37835693 75.8638916 C103.36957054 83.74512661 103.33368886 91.62618069 103.2861824 99.507267 C103.27374439 102.23732794 103.27434249 104.96715203 103.27645874 107.69723511 C103.22753054 129.36694181 99.81782214 148.14911448 84.6484375 164.53515625 C80.65294007 168.25367967 76.28158057 171.20153788 71.72265625 174.1875 C68.99305991 175.87576295 68.99305991 175.87576295 67 178 C83.00140641 188.7398221 97.61191486 194 117 194 C117 135.26 117 76.52 117 16 C114.86264373 15.76458855 114.86264373 15.76458855 113.4140625 17.58203125 Z M-58 45 C-69.98592661 57.17723564 -78.67271194 71.80044403 -84 88 C-84.21027832 88.63035156 -84.42055664 89.26070312 -84.63720703 89.91015625 C-91.68520184 112.00838225 -89.6604241 135.93625366 -79.15234375 156.45922852 C-76.30736328 161.73982543 -72.99109689 166.510016 -69 171 C-65.82455955 170.29417316 -65.82455955 170.29417316 -64.46484375 167.55859375 C-58.05120677 154.45246601 -56.87497957 142.67463857 -56.80076981 128.19228172 C-56.7887988 126.05846385 -56.76930448 123.92483242 -56.74765015 121.79109192 C-56.68663264 115.73050277 -56.63213941 109.66994013 -56.59863281 103.60913086 C-56.5774964 99.88326472 -56.54205529 96.15775362 -56.49787521 92.43209267 C-56.4838756 91.02697276 -56.47502977 89.62179022 -56.47182083 88.21660423 C-56.44144417 76.1909469 -54.69740585 65.4868325 -49.4375 54.625 C-49.10032959 53.91456543 -48.76315918 53.20413086 -48.41577148 52.47216797 C-45.26292443 46.07523161 -41.31634079 40.41729633 -37.00390625 34.7578125 C-34.86985509 32.11263577 -34.86985509 32.11263577 -34 29 C-41.90532868 29 -52.48265351 39.87340043 -58 45 Z M94 29 C68.7446965 47.9719792 51.29885777 71.88567823 45.38671875 103.25390625 C42.87418992 127.59244314 46.03551887 150.94122742 61 171 C68.9402882 163.94196605 72.41452105 154.04187015 73.28591919 143.56109619 C73.40724574 139.68787747 73.44112368 135.819869 73.44140625 131.9453125 C73.45321715 130.51242757 73.46659021 129.07955476 73.48143005 127.646698 C73.51733326 123.9002575 73.53772487 120.15392441 73.55297852 116.40734863 C73.57795185 110.42111143 73.61820738 104.43511164 73.67487907 98.44909286 C73.69091321 96.38381785 73.69495798 94.31877732 73.69789124 92.25344849 C73.88713817 68.38288931 81.04886544 48.51092851 96 30 C95.34 29.67 94.68 29.34 94 29 Z M125 92 C125 102.89 125 113.78 125 125 C128.09375 124.62875 131.1875 124.2575 134.375 123.875 C144.63953385 122.7741589 153.7952743 123.50662551 164 125 C164 114.11 164 103.22 164 92 C160.04 92.66 156.08 93.32 152 94 C148.89437262 94.17211301 145.90800377 94.2833747 142.8125 94.25 C142.08353516 94.25773437 141.35457031 94.26546875 140.60351562 94.2734375 C134.94496754 94.25342495 130.75318334 93.27848519 125 92 Z M125 133 C125 152.47 125 171.94 125 192 C135.98002925 188.70175688 135.98002925 188.70175688 146.1875 184.125 C146.80818359 183.81175781 147.42886719 183.49851562 148.06835938 183.17578125 C149.35759503 182.51470229 150.63073305 181.82137721 151.88671875 181.09912109 C154 180 154 180 156.69140625 179.13916016 C160.04160671 177.81224825 161.73465018 176.83591316 164 174 C165.72705348 167.26867103 164.93094336 159.99429426 164.625 153.125 C164.57481557 151.17719668 164.52919229 149.22927015 164.48828125 147.28125 C164.37830463 142.51778752 164.20592018 137.76024098 164 133 C157.42436386 130.99348638 151.38881648 129.50554075 144.5 129.625 C143.83097656 129.61339844 143.16195313 129.60179687 142.47265625 129.58984375 C135.99077178 129.62660302 131.69205459 131.1748942 125 133 Z " fill="#000000" transform="translate(203,84)"></path>
<path d="M0 0 C2.5625 2 2.5625 2 5 5 C5.53238281 5.65355469 6.06476563 6.30710937 6.61328125 6.98046875 C10.33449299 11.64229721 13.79077884 16.47026434 17.16015625 21.390625 C18.45462856 23.22652204 19.80120562 25.02623117 21.18359375 26.796875 C28.34786294 36.04274113 28.34786294 36.04274113 28 43 C26.28076044 49.99976108 21.82726408 53.08934437 16 57 C15.18789063 57.48339844 14.37578125 57.96679688 13.5390625 58.46484375 C10.81942559 60.10917807 8.30284322 61.92026095 5.75 63.8125 C3.83354654 65.20862604 1.91688456 66.60446591 0 68 C-0.8146875 68.60070312 -1.629375 69.20140625 -2.46875 69.8203125 C-6.9187198 72.97491438 -10.3471948 75.1066567 -16 75 C-22.65685065 73.15874344 -26.1022399 67.31920813 -30 62 C-30.68191406 61.07316406 -31.36382812 60.14632812 -32.06640625 59.19140625 C-37 52.32424242 -37 52.32424242 -37 50 C-37.66 50 -38.32 50 -39 50 C-43.42242206 44.25440347 -48.4138649 37.55356492 -47.6640625 30 C-45.98465225 24.9420115 -41.53434497 20.65806429 -37 18 C-36.01 18 -35.02 18 -34 18 C-34 17.34 -34 16.68 -34 16 C-32.3046875 14.58984375 -32.3046875 14.58984375 -29.875 12.9375 C-28.52535156 12.01904297 -28.52535156 12.01904297 -27.1484375 11.08203125 C-7.33698264 -2.01909212 -7.33698264 -2.01909212 0 0 Z M-9 27 C-9.721875 27.5775 -10.44375 28.155 -11.1875 28.75 C-13.79166667 30.83333333 -16.39583333 32.91666667 -19 35 C-17.34482973 38.58620225 -15.33544279 41.81530529 -13 45 C-12.01 45.33 -11.02 45.66 -10 46 C-7.41730376 44.5696137 -7.41730376 44.5696137 -4.8125 42.5625 C-3.91144531 41.90378906 -3.01039063 41.24507813 -2.08203125 40.56640625 C-1.39496094 40.04949219 -0.70789063 39.53257812 0 39 C-1.11903546 37.18381144 -2.24541284 35.37214474 -3.375 33.5625 C-4.00148438 32.55316406 -4.62796875 31.54382813 -5.2734375 30.50390625 C-6.75816302 27.91988937 -6.75816302 27.91988937 -9 27 Z " fill="#000000" transform="translate(363,300)"></path>
<path d="M0 0 C3.09981813 1.93227835 5.48450017 4.36970553 8 7 C8.6703125 7.64839844 9.340625 8.29679687 10.03125 8.96484375 C13.99721368 12.81640463 17.67473383 16.85433315 21.265625 21.0546875 C23.03165824 23.03550857 24.89342815 24.85565869 26.8125 26.6875 C30.20524504 30.08786919 31.89418987 32.38119929 32.09375 37.3203125 C31.92470918 42.03936871 31.41946371 45.16954347 28.0625 48.625 C25 51 25 51 23 51 C22.67 51.99 22.34 52.98 22 54 C20.43359375 55.54296875 20.43359375 55.54296875 18.4375 57.1875 C14.60614476 60.41826442 11.11928602 63.86879734 7.6640625 67.49609375 C6 69 6 69 4 69 C3.505 70.485 3.505 70.485 3 72 C-1.33907038 75.03734927 -4.76078621 75.43515938 -9.8359375 74.62890625 C-15.7412548 72.91274003 -19.49464563 67.43547293 -23.3203125 62.9296875 C-24.79505487 61.23544859 -26.31442432 59.67471633 -27.9375 58.125 C-30 56 -30 56 -30 54 C-30.99 53.67 -31.98 53.34 -33 53 C-33 52.34 -33 51.68 -33 51 C-33.99 50.67 -34.98 50.34 -36 50 C-37.5703125 48.22265625 -37.5703125 48.22265625 -39.125 46.0625 C-39.64320313 45.35222656 -40.16140625 44.64195312 -40.6953125 43.91015625 C-43.26796143 40.14361336 -43.38144778 37.57737337 -43 33 C-39.94736842 27.31578947 -39.94736842 27.31578947 -36 26 C-34.79117904 23.99983534 -34.79117904 23.99983534 -34 22 C-33.34 22 -32.68 22 -32 22 C-31.67 21.01 -31.34 20.02 -31 19 C-29.43359375 17.45703125 -29.43359375 17.45703125 -27.4375 15.8125 C-24.42556687 13.26932927 -21.61713907 10.64445866 -18.875 7.8125 C-13.23608477 2.17358477 -8.30838141 -2.08063385 0 0 Z M-8.06640625 28.96875 C-8.89011719 29.8040625 -9.71382812 30.639375 -10.5625 31.5 C-11.38878906 32.3353125 -12.21507812 33.170625 -13.06640625 34.03125 C-14.02353516 35.00578125 -14.02353516 35.00578125 -15 36 C-14.34 37.65 -13.68 39.3 -13 41 C-12.34 41 -11.68 41 -11 41 C-10.7525 41.598125 -10.505 42.19625 -10.25 42.8125 C-8.83629988 45.28647521 -7.34944617 46.43370255 -5 48 C-5 47.34 -5 46.68 -5 46 C-4.11054688 45.61714844 -4.11054688 45.61714844 -3.203125 45.2265625 C-0.78775462 43.88183502 0.51211706 42.50785633 2.25 40.375 C2.77078125 39.74335938 3.2915625 39.11171875 3.828125 38.4609375 C4.21484375 37.97882813 4.6015625 37.49671875 5 37 C4.52949219 36.52949219 4.05898437 36.05898438 3.57421875 35.57421875 C-2 30 -2 30 -3.66796875 28.26953125 C-5.8405258 26.19891236 -5.77348338 26.78418832 -8.06640625 28.96875 Z " fill="#000000" transform="translate(233,301)"></path>
<path d="M0 0 C5.36520091 2.07112535 7.98724571 6.50256809 11.0625 11.125 C12.32136616 12.89658488 13.59459083 14.65738056 14.86743164 16.41894531 C16.53606802 18.73349549 18.18590693 21.060889 19.82910156 23.39355469 C20.6889854 24.60066003 21.5617998 25.79861366 22.44433594 26.98925781 C25.51436865 31.15683273 27.0625 33.85998004 27.0625 39.125 C25.41736287 47.20112773 18.53139777 50.72289473 12.0625 55.125 C10.98613281 55.87394531 9.90976562 56.62289062 8.80078125 57.39453125 C6.0625 59.125 6.0625 59.125 4.0625 59.125 C4.0625 59.785 4.0625 60.445 4.0625 61.125 C-0.5880405 64.5899284 -5.98746984 68.26022796 -11.9375 68.125 C-17.65958623 65.987165 -20.27306453 62.68246584 -23.6875 57.875 C-24.19829102 57.17060791 -24.70908203 56.46621582 -25.23535156 55.74047852 C-26.29145905 54.27418934 -27.34057446 52.80283997 -28.3828125 51.32666016 C-29.40048394 49.88549165 -30.42624781 48.44999542 -31.4609375 47.02099609 C-32.8889204 45.04760306 -34.29193949 43.05891274 -35.6875 41.0625 C-36.11772461 40.46856445 -36.54794922 39.87462891 -36.99121094 39.26269531 C-39.8340497 35.08426315 -40.52701047 32.12994391 -39.9375 27.125 C-38.80808403 23.86598873 -37.28589683 22.344241 -34.5 20.375 C-33.78199219 19.86066406 -33.06398438 19.34632813 -32.32421875 18.81640625 C-31.53660156 18.25824219 -30.74898438 17.70007813 -29.9375 17.125 C-29.11894531 16.51527344 -28.30039062 15.90554688 -27.45703125 15.27734375 C-24.64386535 13.18720719 -21.79449689 11.15477968 -18.9375 9.125 C-18.08865234 8.49730713 -18.08865234 8.49730713 -17.22265625 7.85693359 C-5.52517065 -0.75300452 -5.52517065 -0.75300452 0 0 Z M-5.9375 26.125 C-8.5775 28.105 -11.2175 30.085 -13.9375 32.125 C-12.5437718 36.55958973 -10.33167765 38.99878374 -6.9375 42.125 C-4.2975 40.145 -1.6575 38.165 1.0625 36.125 C-0.3312282 31.69041027 -2.54332235 29.25121626 -5.9375 26.125 Z " fill="#000000" transform="translate(292.9375,359.875)"></path>
<path d="M0 0 C5.63110779 3.94257193 8.9992056 8.93413953 12.75 14.625 C13.32621094 15.48351562 13.90242188 16.34203125 14.49609375 17.2265625 C16.00586646 19.47890407 17.50507841 21.73778815 19 24 C19.66 24.99 20.32 25.98 21 27 C21.4375 30.375 21.4375 30.375 21 34 C15.41026469 40.8673891 7.19835068 45.92796328 0 51 C-1.00160156 51.71349609 -1.00160156 51.71349609 -2.0234375 52.44140625 C-5.05279493 54.40843246 -6.9895867 54.99982046 -10.625 55.0625 C-17.29975093 52.96118952 -20.38687334 47.23801094 -24.15625 41.69140625 C-25.39407749 39.88449282 -26.66580059 38.10037659 -27.96875 36.33984375 C-28.5978125 35.48519531 -29.226875 34.63054687 -29.875 33.75 C-30.73738281 32.59757812 -30.73738281 32.59757812 -31.6171875 31.421875 C-33.30338989 28.46863918 -33.87037814 26.4047343 -34 23 C-32.11200824 16.72325545 -27.40486212 13.92207554 -22.25 10.375 C-21.46367187 9.81554687 -20.67734375 9.25609375 -19.8671875 8.6796875 C-5.93112264 -1.13574689 -5.93112264 -1.13574689 0 0 Z M-6 21 C-8.97 23.475 -8.97 23.475 -12 26 C-10.8321734 29.81413002 -10.8321734 29.81413002 -7.875 32.3125 C-7.25625 32.539375 -6.6375 32.76625 -6 33 C-4.35 31.68 -2.7 30.36 -1 29 C-1.54226981 25.20411134 -3.20127563 23.52788007 -6 21 Z " fill="#000000" transform="translate(203,396)"></path>
</svg><style>@media (prefers-color-scheme: light) { :root { filter: none; } }
@media (prefers-color-scheme: dark) { :root { filter: invert(100%); } }
</style></svg>